<?xml version="1.0" encoding="UTF-8" standalone="no"?>
<!-- Created with Inkscape (http://www.inkscape.org/) -->

<svg
   xmlns:dc="http://purl.org/dc/elements/1.1/"
   xmlns:cc="http://creativecommons.org/ns#"
   xmlns:rdf="http://www.w3.org/1999/02/22-rdf-syntax-ns#"
   xmlns:svg="http://www.w3.org/2000/svg"
   xmlns="http://www.w3.org/2000/svg"
   xmlns:sodipodi="http://sodipodi.sourceforge.net/DTD/sodipodi-0.dtd"
   xmlns:inkscape="http://www.inkscape.org/namespaces/inkscape"
   width="50"
   height="50"
   viewBox="0 0 50.000001 50.000001"
   id="svg4144"
   version="1.1"
   inkscape:version="0.91 r13725"
   sodipodi:docname="logo1.svg">
  <defs
     id="defs4146" />
  <sodipodi:namedview
     id="base"
     pagecolor="#ffffff"
     bordercolor="#666666"
     borderopacity="1.0"
     inkscape:pageopacity="0.0"
     inkscape:pageshadow="2"
     inkscape:zoom="11.2"
     inkscape:cx="24.611998"
     inkscape:cy="28.786487"
     inkscape:document-units="px"
     inkscape:current-layer="layer1"
     showgrid="false"
     units="px"
     inkscape:window-width="1280"
     inkscape:window-height="962"
     inkscape:window-x="-8"
     inkscape:window-y="-8"
     inkscape:window-maximized="1" />
  <metadata
     id="metadata4149">
    <rdf:RDF>
      <cc:Work
         rdf:about="">
        <dc:format>image/svg+xml</dc:format>
        <dc:type
           rdf:resource="http://purl.org/dc/dcmitype/StillImage" />
        <dc:title></dc:title>
      </cc:Work>
    </rdf:RDF>
  </metadata>
  <g
     inkscape:label="Ebene 1"
     inkscape:groupmode="layer"
     id="layer1"
     transform="translate(0,-1002.3622)">
    <path
       style="fill:#68a884;fill-opacity:1;fill-rule:evenodd;stroke:#000000;stroke-width:1.08891225px;stroke-linecap:butt;stroke-linejoin:miter;stroke-opacity:1"
       d="m 32.840012,1012.9454 c -6.289349,-1.606 -14.068831,-0.2921 -19.542087,1.9445 -5.4732569,2.2365 -11.396891,5.0926 -12.34748805,9.9167 -0.95059706286,4.8241 2.38841115,8.4581 6.61125295,11.9587 4.2228421,3.5007 12.1301191,5.6949 18.2781701,6.0279 6.148052,0.3329 13.025943,0.011 17.305927,-3.6946 4.279984,-3.7057 7.441674,-9.6146 5.639011,-15.2641 -1.802662,-5.6495 -9.655439,-9.2832 -15.944786,-10.8891 z"
       id="path4007"
       inkscape:connector-curvature="0"
       sodipodi:nodetypes="zzzzzzzz" />
    <path
       style="fill:#47c600;fill-opacity:1;fill-rule:evenodd;stroke:#000000;stroke-width:1.00930238px;stroke-linecap:butt;stroke-linejoin:miter;stroke-opacity:1"
       d="m 11.46756,1026.7749 7.389535,-0.1804 1.351745,-4.776 6.668603,5.8575 -7.930231,8.1105 -0.360466,-4.686 -8.6511626,-0.1803 z"
       id="path4813"
       inkscape:connector-curvature="0" />
    <path
       style="fill:#ff0000;fill-opacity:1;fill-rule:evenodd;stroke:#000000;stroke-width:1.08891225px;stroke-linecap:butt;stroke-linejoin:miter;stroke-opacity:1"
       d="m 21.853664,1047.3628 -16.7225817,-7.3891 2.9167289,-19.931 13.7086278,-12.153 2.722281,10.2085 -11.861366,4.3751 -3.3056257,15.2642 17.3059267,-0.2916 z"
       id="path4009"
       inkscape:connector-curvature="0" />
    <path
       style="fill:#ffc600;fill-opacity:1;fill-rule:evenodd;stroke:#000000;stroke-width:1.08891225px;stroke-linecap:butt;stroke-linejoin:miter;stroke-opacity:1"
       d="m 42.173544,1013.0425 -13.416954,4.9585 0.09723,18.1809 15.458666,4.3751 0.291673,-7.389 -11.569693,-2.8195 0,-3.1112 10.111328,-1.5556 -0.875018,-4.0834 -9.527983,0.6806 -0.486122,-2.0417 12.347488,-3.1113 z"
       id="path4811"
       inkscape:connector-curvature="0" />
    <path
       style="fill:#d4de84;fill-rule:evenodd;stroke:#000000;stroke-width:1px;stroke-linecap:butt;stroke-linejoin:miter;stroke-opacity:1;fill-opacity:1"
       d="m 9.1964286,1003.9693 -5.1785715,3.75 2.1428572,4.8215 5.3571427,-0.089 2.946429,-5 z"
       id="path4815"
       inkscape:connector-curvature="0" />
    <path
       style="fill:#d46b2b;fill-rule:evenodd;stroke:#000000;stroke-width:1px;stroke-linecap:butt;stroke-linejoin:miter;stroke-opacity:1;fill-opacity:1"
       d="m 42.5,1003.5229 -5.714286,3.125 2.5,4.8214 c 0,0 5.803572,-1.5178 5.803572,-1.9642 0,-0.4465 -2.589286,-5.9822 -2.589286,-5.9822 z"
       id="path4817"
       inkscape:connector-curvature="0" />
    <path
       style="fill:#a2c7c2;fill-rule:evenodd;stroke:#000000;stroke-width:1px;stroke-linecap:butt;stroke-linejoin:miter;stroke-opacity:1;fill-opacity:1"
       d="m 8.4821429,1044.1479 -4.9107143,5.2679 7.7678574,1.0714 0.803571,-4.375 z"
       id="path4819"
       inkscape:connector-curvature="0" />
    <path
       style="fill:#61de84;fill-rule:evenodd;stroke:#000000;stroke-width:1px;stroke-linecap:butt;stroke-linejoin:miter;stroke-opacity:1;fill-opacity:1"
       d="m 38.928571,1043.9693 -4.553571,3.2143 5.982143,3.6607 5.982143,-6.875 z"
       id="path4821"
       inkscape:connector-curvature="0" />
  </g>
</svg>
